<svg width="54" height="21" viewBox="0 0 54 21" fill="none" xmlns="http://www.w3.org/2000/svg">
<path d="M3.02307 8.32934C3.02307 7.78455 3.46809 7.45762 4.12794 7.45762C5.12539 7.45762 5.72387 8.08029 6.04613 8.50059L7.90295 7.08401C7.39654 6.22788 6.27631 5.1538 4.2507 5.1538C2.07164 5.1538 0.368292 6.35242 0.368292 8.36052C0.368292 12.2209 5.41696 11.5671 5.41696 13.2328C5.41696 13.8554 4.91056 14.2135 4.11259 14.2135C2.9003 14.2135 2.19441 13.653 1.65731 13.0304L0 14.5248C0.567784 15.4587 1.87215 16.5328 3.98983 16.5328C6.29165 16.5328 8.10243 15.2097 8.10243 13.0926C8.08707 9.21664 3.02307 10.0417 3.02307 8.32934Z" fill="white"/>
<path d="M28.2811 6.55441C27.9742 6.13412 26.8846 5.13787 25.0892 5.13787C22.0508 5.13787 19.8871 7.50396 19.8871 10.8352C19.8871 14.1664 21.9127 16.5169 24.9972 16.5169C26.854 16.5169 27.8974 15.4428 28.1276 15.1315V16.408C28.1276 18.0891 26.7159 18.5561 25.1813 18.5561C23.7081 18.5561 22.4805 17.9957 22.1429 17.8089L21.2835 20.0038C22.2503 20.5486 23.7388 21 25.212 21C28.3578 21 30.9512 19.6925 30.9512 15.6607V5.41806H28.2964V6.55441H28.2811ZM25.4575 13.9952C23.8616 13.9952 22.726 12.7343 22.726 10.8196C22.726 8.92047 23.8462 7.67522 25.4422 7.67522C27.0995 7.67522 28.2043 8.98275 28.2043 10.8196C28.189 12.7498 27.0841 13.9952 25.4575 13.9952Z" fill="white"/>
<path d="M44.394 5.41871H41.5705V16.2529H44.394V5.41871Z" fill="white"/>
<path d="M48.9206 8.32934C48.9206 7.78455 49.3657 7.45762 50.0256 7.45762C51.023 7.45762 51.6215 8.08029 51.9437 8.50059L53.8005 7.08401C53.2941 6.22788 52.1739 5.1538 50.1483 5.1538C47.9692 5.1538 46.2659 6.35242 46.2659 8.36052C46.2659 12.2209 51.3145 11.5671 51.3145 13.2328C51.3145 13.8554 50.8081 14.2135 50.0102 14.2135C48.7979 14.2135 48.092 13.653 47.5549 13.0304L45.8976 14.5248C46.4654 15.4587 47.7697 16.5328 49.8874 16.5328C52.1893 16.5328 54 15.2097 54 13.0926C53.9846 9.21664 48.9206 10.0417 48.9206 8.32934Z" fill="white"/>
<path d="M43.3348 3.22544C44.2008 3.01801 44.7371 2.13768 44.5326 1.25918C44.3281 0.380675 43.4603 -0.163326 42.5943 0.0441133C41.7282 0.251552 41.1919 1.13188 41.3964 2.01038C41.6009 2.88888 42.4687 3.43289 43.3348 3.22544Z" fill="white"/>
<path d="M35.8159 6.99054V5.41834H33.0537V16.2526H35.8772V11.536C35.8772 9.15428 37.2123 7.42644 40.0052 8.20469V5.30938C37.9028 4.68672 36.3223 5.58957 35.8159 6.99054Z" fill="white"/>
<path d="M16.634 6.47702L11.3859 20.3623H13.0892C13.7491 20.3623 14.3476 19.942 14.5931 19.3193L19.8413 5.43407H18.1379C17.4781 5.4185 16.8796 5.8388 16.634 6.47702Z" fill="white"/>
<path d="M14.2092 12.6726L11.4778 5.41871H8.6542L11.4011 12.6726H14.2092Z" fill="white"/>
</svg>
